<svg xmlns="http://www.w3.org/2000/svg" width="26" height="26" id="travel"><g fill="#fff" transform="translate(5 -1031.362)"><circle cx="8" cy="1044.362" r="13" fill="#239fdb" fill-rule="evenodd"></circle><path fill="none" stroke="#fff" stroke-linecap="round" stroke-linejoin="round" d="M12.898 1037.966c-.384 0-.767.148-1.06.442l-2.467 2.464-5.995-1.066-1.414 1.414 5.28 1.783-3.041 3.055-1.182-.248-1.414 1.414 2.488 1.047 1.047 2.488 1.416-1.414-.242-1.172 3.055-3.055 1.795 5.27 1.414-1.414-1.061-6.004 2.441-2.441a1.498 1.498 0 0 0 0-2.122 1.496 1.496 0 0 0-1.06-.44z"></path></g></svg>